<?xml version="1.0" standalone="no"?>
<!DOCTYPE svg PUBLIC "-//W3C//DTD SVG 20010904//EN"
 "http://www.w3.org/TR/2001/REC-SVG-20010904/DTD/svg10.dtd">
<svg version="1.0" xmlns="http://www.w3.org/2000/svg"
 width="1022.000000pt" height="1022.000000pt" viewBox="0 0 1022.000000 1022.000000"
 preserveAspectRatio="xMidYMid meet">
<metadata>
Created by potrace 1.14, written by Peter Selinger 2001-2017
</metadata>
<g transform="translate(0.000000,1022.000000) scale(0.100000,-0.100000)"
fill="#000000" stroke="none">
<path d="M6797 8528 c-31 -50 -3570 -6743 -3574 -6759 -7 -26 154 -107 172
-87 17 19 3585 6763 3585 6777 0 9 -148 91 -165 91 -2 0 -11 -10 -18 -22z"/>
<path d="M2490 7630 c-2045 -2084 -2455 -2505 -2455 -2520 0 -15 410 -436
2455 -2520 l535 -546 73 65 c40 36 71 68 70 72 -2 3 -646 662 -1433 1464 -786
802 -1430 1461 -1430 1465 0 4 644 663 1430 1465 787 802 1431 1461 1433 1464
1 4 -30 36 -70 72 l-73 65 -535 -546z"/>
<path d="M7099 8109 l-74 -68 235 -238 c579 -586 2635 -2687 2635 -2693 0 -4
-643 -663 -1430 -1465 -786 -802 -1431 -1461 -1433 -1465 -1 -3 30 -36 70 -71
l73 -66 1495 1525 c822 839 1495 1533 1495 1542 0 14 -1468 1520 -2715 2786
l-277 280 -74 -67z"/>
</g>
</svg>
